<?xml version="1.0" encoding="UTF-8"?><svg id="Clinisys_logo_bk_rgb" xmlns="http://www.w3.org/2000/svg" viewBox="0 0 739 349.34"><g id="Clinisys_logo_bk_rgb-2"><path d="M456.27,170.94c-4.61-1.76-9.23-3.22-13.84-4.37-4.62-1.15-8.53-2.49-11.75-4.01-3.22-1.52-4.82-3.49-4.82-5.92,0-2.3,1-4.12,3-5.46,2-1.34,4.52-2,7.56-2,6.8,0,11.65,3.09,14.57,9.29l20.03-10.93c-3.52-6.19-8.32-10.95-14.38-14.3-6.07-3.34-12.81-5.01-20.21-5.01-9.83,0-18.06,2.58-24.67,7.74-6.62,5.16-9.93,12.23-9.93,21.21,0,5.95,1.61,10.9,4.83,14.84,3.22,3.95,7.13,6.83,11.75,8.65,4.61,1.82,9.22,3.34,13.84,4.55,4.61,1.21,8.53,2.58,11.75,4.1,3.21,1.52,4.82,3.49,4.82,5.92,0,5.22-4.19,7.83-12.56,7.83-9.23,0-15.18-3.94-17.84-11.84l-20.39,11.47c6.8,14.45,19.54,21.67,38.24,21.67,10.44,0,19.15-2.52,26.13-7.56,6.98-5.04,10.47-12.23,10.47-21.58,0-6.19-1.61-11.35-4.82-15.48-3.22-4.13-7.13-7.07-11.75-8.83Z"/><path d="M644.81,179.77c-3.22-4.13-7.13-7.07-11.75-8.83-4.61-1.76-9.23-3.22-13.84-4.37-4.62-1.15-8.53-2.49-11.75-4.01-3.22-1.52-4.82-3.49-4.82-5.92,0-2.3,1-4.12,3-5.46,2-1.34,4.52-2,7.56-2,6.8,0,11.65,3.09,14.57,9.29l20.03-10.93c-3.52-6.19-8.32-10.95-14.38-14.3-6.07-3.34-12.81-5.01-20.21-5.01-9.83,0-18.06,2.58-24.67,7.74-6.62,5.16-9.93,12.23-9.93,21.21,0,5.95,1.61,10.9,4.83,14.84,3.22,3.95,7.13,6.83,11.75,8.65,4.61,1.82,9.22,3.34,13.84,4.55,4.61,1.21,8.53,2.58,11.75,4.1,3.21,1.52,4.82,3.49,4.82,5.92,0,5.22-4.19,7.83-12.56,7.83-9.23,0-15.18-3.94-17.84-11.84l-20.39,11.47c6.8,14.45,19.54,21.67,38.24,21.67,10.44,0,19.15-2.52,26.13-7.56,6.98-5.04,10.47-12.23,10.47-21.58,0-6.19-1.61-11.35-4.82-15.48Z"/><polygon points="229.27 221.83 252.75 221.83 252.75 139.02 229.27 125.37 229.27 221.83"/><path d="M241.1,92.22c-4.01,0-7.43,1.45-10.29,4.37-2.85,2.91-4.28,6.31-4.28,10.2s1.43,7.25,4.28,10.11c2.85,2.85,6.28,4.28,10.29,4.28s7.25-1.42,10.11-4.28c2.85-2.85,4.28-6.22,4.28-10.11s-1.43-7.28-4.28-10.2c-2.85-2.91-6.22-4.37-10.11-4.37Z"/><polygon points="364.21 221.83 387.7 221.83 387.7 125.37 364.21 139.02 364.21 221.83"/><path d="M375.87,92.22c-3.88,0-7.25,1.45-10.11,4.37-2.85,2.91-4.28,6.31-4.28,10.2s1.42,7.25,4.28,10.11c2.85,2.85,6.22,4.28,10.11,4.28s7.43-1.42,10.29-4.28c2.85-2.85,4.28-6.22,4.28-10.11s-1.43-7.28-4.28-10.2c-2.85-2.91-6.28-4.37-10.29-4.37Z"/><path d="M308.46,128.25c-22.93,0-41.51,18.59-41.51,41.51l-.02,52.07h23.49l.05-52.07c0-9.94,8.06-17.99,17.99-17.99s17.99,8.06,17.99,17.99v52.07h23.5l.02-52.07c0-22.93-18.59-41.51-41.51-41.51Z"/><path d="M541.79,130.8l-.05,52.07c0,9.94-8.06,17.99-17.99,17.99s-17.99-8.06-17.99-17.99v-52.07h-23.5l-.02,52.07c0,22.93,18.58,41.51,41.51,41.51,6.46,0,12.54-1.52,17.99-4.15v.79c0,9.94-7.85,17.62-20.8,17.99l-25.39,.1-13.69,20.62h41.88c22.93,0,41.51-15.78,41.51-38.7l.02-52.07h-.02l.02-38.15h-23.49Z"/><polygon points="190.02 221.83 213.51 221.83 213.51 89.62 190.02 103.27 190.02 221.83"/><path d="M120.07,158.72c2.43-2.43,5.23-4.25,8.23-5.46,2.99-1.21,6.18-1.82,9.36-1.82s6.37,.61,9.36,1.82c2.99,1.21,5.8,3.04,8.23,5.46,1.58,1.58,2.87,3.32,3.93,5.16l20.05-11.57c-2.06-3.56-4.55-6.93-7.6-9.97-18.76-18.76-49.18-18.76-67.95,0-18.76,18.76-18.76,49.18,0,67.95,18.76,18.76,49.18,18.76,67.95,0,3.04-3.04,5.54-6.42,7.6-9.97l-20.05-11.57c-1.06,1.84-2.36,3.59-3.93,5.16-2.43,2.43-5.23,4.25-8.23,5.46-2.99,1.21-6.18,1.82-9.36,1.82s-6.37-.61-9.36-1.82c-2.99-1.21-5.8-3.04-8.23-5.46-2.43-2.43-4.25-5.23-5.46-8.23s-1.82-6.18-1.82-9.36,.61-6.37,1.82-9.36,3.04-5.8,5.46-8.23Z"/></g></svg>